<svg id="Layer_1" data-name="Layer 1" xmlns="http://www.w3.org/2000/svg" viewBox="0 0 48 48"><defs><style>.cls-1{fill:#ff4500;}.cls-2{fill:#fff;}</style></defs><path class="cls-1" d="M24,48c23.82,0,24-10.74,24-24S47.81,0,24,0,0,10.74,0,24,.19,48,24,48Z"/><path class="cls-2" d="M37.7,22.53a3.05,3.05,0,0,1-.11.85,3.32,3.32,0,0,1-.33.78,3.06,3.06,0,0,1-.54.65,2.73,2.73,0,0,1-.7.48c0,.08,0,.16,0,.23A3.53,3.53,0,0,1,36,26c0,.07,0,.15,0,.23,0,4.64-5.42,8.42-12.1,8.42s-12.09-3.78-12.09-8.42c0-.08,0-.16,0-.23v-.46c0-.07,0-.15,0-.23a3,3,0,0,1,.92-5.76,3.07,3.07,0,0,1,2.42.8A14.24,14.24,0,0,1,17,19.26a13.86,13.86,0,0,1,2-.79,14.79,14.79,0,0,1,2.09-.5,15.33,15.33,0,0,1,2.14-.19l1.53-7.2a.67.67,0,0,1,.1-.23.77.77,0,0,1,.18-.18,1,1,0,0,1,.24-.09.7.7,0,0,1,.25,0l5.08,1a2.08,2.08,0,1,1-.27,1.27l-4.43-.94-1.35,6.48a13.69,13.69,0,0,1,2.11.2,14.76,14.76,0,0,1,5.87,2.35,3,3,0,0,1,3.24-.62,3,3,0,0,1,1.34,1.07A3,3,0,0,1,37.7,22.53ZM17.11,25.4a2.07,2.07,0,0,0,1.12,1.13,2.15,2.15,0,0,0,.8.15,2.07,2.07,0,0,0,1.46-3.54A2.07,2.07,0,0,0,17,24.61,2.14,2.14,0,0,0,17.11,25.4Zm11.88,5a.52.52,0,0,0,.17-.39.55.55,0,0,0-.16-.4.52.52,0,0,0-.39-.17.69.69,0,0,0-.41.15,8.33,8.33,0,0,1-1,.59,8.72,8.72,0,0,1-1.07.41,6.6,6.6,0,0,1-2.28.26,7.37,7.37,0,0,1-1.15,0,7.21,7.21,0,0,1-1.12-.24,7,7,0,0,1-1.07-.43,6.78,6.78,0,0,1-1-.59.56.56,0,0,0-.39-.13.57.57,0,0,0-.37.16.62.62,0,0,0-.16.37.52.52,0,0,0,.13.38,7.69,7.69,0,0,0,1.15.73,8.26,8.26,0,0,0,1.27.52,8.64,8.64,0,0,0,1.34.29,7.74,7.74,0,0,0,1.36.06,7.86,7.86,0,0,0,1.37-.06,8,8,0,0,0,2.6-.81A8.34,8.34,0,0,0,29,30.31Zm-.38-3.53a2.1,2.1,0,0,0,.82-.16,2.06,2.06,0,0,0,.69-.47,2,2,0,0,0,.45-.7,2.16,2.16,0,0,0,.14-.83,2.09,2.09,0,0,0-1.28-1.92,2.06,2.06,0,0,0-2.26.46,2,2,0,0,0-.45,2.26,2.07,2.07,0,0,0,1.91,1.28Z"/></svg>