<svg width="48" height="48" xmlns="http://www.w3.org/2000/svg"><g fill="none" fill-rule="nonzero"><path d="M24 48c23.815 0 24-10.745 24-24S47.815 0 24 0 0 10.745 0 24s.185 24 24 24z" fill="#000"/><path d="M22.235 22.176v-.874a7.706 7.706 0 00-.978-.067c-4.001 0-7.257 3.048-7.257 6.793 0 2.297 1.227 4.33 3.098 5.56-1.253-1.254-1.95-2.907-1.948-4.624 0-3.692 3.163-6.702 7.085-6.788" fill="#00F2EA"/><path d="M22.428 31.824a3.133 3.133 0 003.134-3.004l.006-14.878h2.734a5.13 5.13 0 01-.088-.942H24.48l-.006 14.878a3.132 3.132 0 01-3.134 3.003 3.135 3.135 0 01-1.457-.358 3.141 3.141 0 002.546 1.3M33.41 18.993v-.827a5.187 5.187 0 01-2.83-.836 5.206 5.206 0 002.83 1.663" fill="#00F2EA"/><path d="M30.47 17.54a5.077 5.077 0 01-1.274-3.364h-.999a5.138 5.138 0 002.274 3.364m-9.22 7.263c-1.73.002-3.131 1.389-3.133 3.1a3.098 3.098 0 001.678 2.744 3.058 3.058 0 01-.592-1.808c.001-1.711 1.403-3.098 3.132-3.1.323 0 .632.053.924.143v-3.765a6.894 6.894 0 00-.924-.066c-.054 0-.108.003-.161.004v2.892a3.11 3.11 0 00-.925-.144" fill="#FF004F"/><path d="M32.914 19.471v2.872a8.911 8.911 0 01-5.184-1.653v7.51c0 3.752-3.077 6.803-6.858 6.803a6.855 6.855 0 01-3.93-1.233 6.865 6.865 0 005.015 2.171c3.782 0 6.859-3.052 6.859-6.802v-7.51A8.912 8.912 0 0034 23.281v-3.697c-.373 0-.736-.04-1.086-.114" fill="#FF004F"/><path d="M28.105 27.952v-7.521a9.26 9.26 0 005.307 1.656V19.21a5.343 5.343 0 01-2.89-1.658 5.155 5.155 0 01-2.327-3.376h-2.792l-.006 14.833c-.064 1.66-1.473 2.994-3.2 2.994a3.233 3.233 0 01-2.6-1.297c-1.055-.537-1.717-1.597-1.718-2.754.002-1.717 1.436-3.109 3.206-3.11.33 0 .646.052.946.143v-2.902c-3.795.087-6.855 3.106-6.855 6.809 0 1.79.717 3.42 1.886 4.638a7.127 7.127 0 004.023 1.235c3.871 0 7.02-3.056 7.02-6.813" fill="#FFF"/></g></svg>