<?xml version="1.0" encoding="utf-8"?>
<!-- Generator: Adobe Illustrator 25.2.0, SVG Export Plug-In . SVG Version: 6.00 Build 0)  -->
<svg version="1.1" id="Layer_1" xmlns="http://www.w3.org/2000/svg" xmlns:xlink="http://www.w3.org/1999/xlink" x="0px" y="0px"
	 viewBox="0 0 48 48" style="enable-background:new 0 0 48 48;" xml:space="preserve">
<style type="text/css">
	.st0{fill:#7289DA;}
	.st1{fill:#FFFFFF;}
</style>
<path class="st0" d="M24,48c23.8,0,24-10.7,24-24S47.8,0,24,0S0,10.7,0,24S0.2,48,24,48z"/>
<path class="st1" d="M29.9,32.8l-1.4-1.6c2.7-0.7,3.8-2.6,3.8-2.6c-3.4,3.2-12.8,3.4-16.4,0c0,0,0.9,1.7,3.7,2.6l-1.5,1.6
	c-4.6-0.1-6.4-3.2-6.4-3.2c0-6.9,3-12.3,3-12.3c3.1-2.2,5.9-2.2,5.9-2.2l0.2,0.3c-3.8,1.1-5.5,2.8-5.5,2.8c4.5-3,13.7-2.8,17.3,0
	c0.1-0.1-2.2-1.8-5.7-2.8l0.3-0.3c0,0,2.8,0,5.9,2.2c0,0,3,5.5,3,12.3C36.3,29.7,34.6,32.8,29.9,32.8z"/>
<ellipse class="st0" cx="20" cy="25.4" rx="2.2" ry="2.3"/>
<ellipse class="st0" cx="27.7" cy="25.4" rx="2.2" ry="2.3"/>
</svg>
