<svg width="48" height="48" xmlns="http://www.w3.org/2000/svg"><g fill="none" fill-rule="nonzero"><path d="M24 48c23.815 0 24-10.745 24-24S47.815 0 24 0 0 10.745 0 24s.185 24 24 24z" fill="#904FFB"/><path fill="#FFF" d="M33.272 24.797L29.95 28.12h-3.322l-2.907 2.907V28.12h-3.738V15.661h13.29z"/><path d="M34.933 14v11.628l-7.475 7.474h-3.322l-4.153 4.153v-4.153H15v-14.95L19.153 14h15.78zm-1.661 1.661H19.983V28.12h3.738v2.907l2.907-2.907h3.322l3.322-3.322v-9.136zm-2.492 2.907v4.983h-1.66v-4.983h1.66zm-4.568 0v4.983h-1.66v-4.983h1.66z" fill="#000"/></g></svg>