<svg id="Layer_1" data-name="Layer 1" xmlns="http://www.w3.org/2000/svg" viewBox="0 0 48 48"><path d="M24,48c23.82,0,24-10.74,24-24S47.81,0,24,0,0,10.74,0,24,.19,48,24,48Z" style="fill:#1db954"/><path d="M24,12.81A11.19,11.19,0,1,0,35.19,24,11.19,11.19,0,0,0,24,12.81ZM29.13,29a.7.7,0,0,1-1,.23c-2.63-1.61-5.93-2-9.83-1.08a.69.69,0,0,1-.83-.52.7.7,0,0,1,.52-.84c4.26-1,7.92-.55,10.87,1.25A.7.7,0,0,1,29.13,29ZM30.5,25.9a.88.88,0,0,1-1.2.29,14.73,14.73,0,0,0-11.15-1.31.87.87,0,0,1-1.09-.58.86.86,0,0,1,.59-1.08A16.28,16.28,0,0,1,30.21,24.7a.88.88,0,0,1,.29,1.2Zm.12-3.17c-3.61-2.14-9.56-2.34-13-1.29a1.05,1.05,0,0,1-.61-2c3.95-1.2,10.52-1,14.68,1.5a1,1,0,0,1-1.07,1.8Z" style="fill:#fff"/></svg>